<svg xmlns="http://www.w3.org/2000/svg" width="18" height="22"><path d="M7.112.13H5.878l-.832 3.23L4.18.13H2.9c.257.77.525 1.53.782 2.3a20 20 0 0 1 .745 2.6v3.33h1.22V5.03L7.115.13m1.633 2.03a1.481 1.481 0 0 0-1.279.62 2.41 2.41 0 0 0-.344 1.45v2.14a2.41 2.41 0 0 0 .344 1.45 1.634 1.634 0 0 0 2.563 0 2.434 2.434 0 0 0 .341-1.45V4.23a2.434 2.434 0 0 0-.341-1.45 1.485 1.485 0 0 0-1.284-.62m5.692.07h-1.1v4.68a.958.958 0 0 1-.694.52.248.248 0 0 1-.258-.26 2.419 2.419 0 0 1-.014-.43V2.23h-1.1v4.85a3.134 3.134 0 0 0 .1.91.669.669 0 0 0 .708.45 1.746 1.746 0 0 0 1.256-.75v.67h1.1V2.23m-5.692 5.2c-.353 0-.524-.28-.524-.85V4.01c0-.57.171-.86.524-.86s.526.29.526.86v2.57c0 .57-.171.85-.526.85M7.113 0H5.88l-.832 3.23L4.183 0H2.9c.257.76.525 1.53.782 2.29a20.667 20.667 0 0 1 .746 2.6v3.33h1.219V4.89zm3.26 6.24V4.09a2.427 2.427 0 0 0-.341-1.44 1.619 1.619 0 0 0-2.564 0 2.4 2.4 0 0 0-.345 1.44v2.15a2.4 2.4 0 0 0 .345 1.44 1.619 1.619 0 0 0 2.564 0 2.427 2.427 0 0 0 .342-1.44zm-1.1.21c0 .57-.17.85-.525.85s-.525-.28-.525-.85V3.87c0-.57.17-.85.525-.85s.525.28.525.85v2.58zm5.168 1.77V2.1h-1.1v4.68a.96.96 0 0 1-.694.52.254.254 0 0 1-.258-.26 2.686 2.686 0 0 1-.013-.43V2.1h-1.1v4.84a3.13 3.13 0 0 0 .1.91.679.679 0 0 0 .709.46 1.779 1.779 0 0 0 1.256-.75v.66h1.1zm3.251 3.14a2.277 2.277 0 0 0-1.947-1.78 91.075 91.075 0 0 0-13.487 0 2.276 2.276 0 0 0-1.946 1.78 29.414 29.414 0 0 0 0 8.6 2.286 2.286 0 0 0 1.946 1.79 91.088 91.088 0 0 0 13.488 0 2.287 2.287 0 0 0 1.946-1.79 29.6 29.6 0 0 0 .001-8.6zM5.131 12.6h-1.3v7H2.62v-7H1.34v-1.14h3.794v1.14zm3.289 7H7.33v-.66a1.732 1.732 0 0 1-1.243.74.665.665 0 0 1-.7-.45 3.1 3.1 0 0 1-.095-.9v-4.8h1.087V18a3.269 3.269 0 0 0 .011.43.245.245 0 0 0 .254.25.958.958 0 0 0 .688-.51v-4.64h1.09v6.07zm4.134-1.82a4.879 4.879 0 0 1-.11 1.22.862.862 0 0 1-.87.68 1.487 1.487 0 0 1-1.124-.67v.59H9.361v-8.14h1.089v2.66a1.463 1.463 0 0 1 1.124-.66.862.862 0 0 1 .87.68 4.771 4.771 0 0 1 .11 1.22v2.42zm4.107-1.01h-2.176v1.07c0 .56.182.84.556.84a.465.465 0 0 0 .486-.44 6.985 6.985 0 0 0 .024-.74h1.11v.16c0 .35-.013.59-.023.71a1.541 1.541 0 0 1-.254.65 1.5 1.5 0 0 1-1.316.66 1.563 1.563 0 0 1-1.318-.62 2.367 2.367 0 0 1-.349-1.43v-2.12a2.388 2.388 0 0 1 .336-1.43 1.555 1.555 0 0 1 1.3-.62 1.518 1.518 0 0 1 1.284.62 2.417 2.417 0 0 1 .336 1.43v1.26zm-5.669-2.32a.771.771 0 0 0-.542.26v3.7a.748.748 0 0 0 .542.27c.314 0 .474-.27.474-.82v-2.58c.001-.55-.159-.83-.473-.83zm4.039 0q-.546 0-.546.84v.56h1.088v-.56c.001-.56-.181-.84-.541-.84z" fill="#fff" fill-rule="evenodd"/></svg>